<svg width="1384" height="420" viewBox="0 0 1384 420" fill="none" xmlns="http://www.w3.org/2000/svg">
<path d="M209.648 104.824C238.595 104.824 262.06 81.3581 262.06 52.4118C262.06 23.4656 238.595 0 209.648 0C180.702 0 157.237 23.4656 157.237 52.4118C157.237 81.3581 180.702 104.824 209.648 104.824Z" fill="#BEC4CD"/>
<path d="M366.885 104.824C395.831 104.824 419.297 81.3581 419.297 52.4118C419.297 23.4656 395.831 0 366.885 0C337.939 0 314.473 23.4656 314.473 52.4118C314.473 81.3581 337.939 104.824 366.885 104.824Z" fill="#BEC4CD"/>
<path d="M209.648 419.295C238.595 419.295 262.06 395.829 262.06 366.883C262.06 337.937 238.595 314.471 209.648 314.471C180.702 314.471 157.237 337.937 157.237 366.883C157.237 395.829 180.702 419.295 209.648 419.295Z" fill="#BEC4CD"/>
<path d="M366.883 314.471C364.098 314.471 361.314 314.799 358.693 315.126C322.496 320.859 270.248 274.016 262.059 234.379V183.441C262.059 169.028 250.266 157.235 235.853 157.235H184.915C151.012 150.193 111.866 111.048 104.824 77.1436V0H0V104.824H77.1437C111.048 111.866 150.193 151.012 157.235 184.915V235.853C157.235 250.266 169.028 262.059 183.441 262.059H234.379C274.016 270.248 320.859 322.496 315.126 358.693C314.635 361.314 314.471 364.098 314.471 366.883C314.471 399.313 343.789 424.863 377.365 418.312C397.839 414.381 414.217 397.839 418.312 377.365C424.7 343.789 399.149 314.471 366.883 314.471Z" fill="url(#paint0_linear_1_3)"/>
<path d="M525.593 147.899H584.556V327.737H639.916V147.899H698.879V99.4183H525.593V147.899Z" fill="#B2BAC5"/>
<path d="M800.266 169.356C778.81 169.356 759.155 183.605 751.621 211.449V173.287H701.502V327.738H754.242V276.964C754.242 233.233 764.888 219.311 786.344 219.311C795.024 219.311 802.886 220.621 810.257 223.242L823.196 173.45C816.808 170.666 809.274 169.356 800.266 169.356Z" fill="#B2BAC5"/>
<path d="M941.121 173.451V189.993C931.785 176.727 914.588 169.52 898.373 169.52C878.227 169.52 860.538 177.218 845.634 192.123C830.729 207.027 823.031 226.19 823.031 250.431C823.031 274.671 830.729 293.834 845.634 308.739C860.538 323.643 878.063 331.014 898.373 331.014C917.208 331.014 931.458 323.971 941.121 310.377V327.902H993.861V173.451H941.121V173.451ZM931.458 273.525C919.174 285.809 899.028 285.809 886.089 273.525C873.805 260.585 873.805 240.44 886.089 228.156C899.028 215.216 919.174 215.216 931.458 228.156C944.397 240.276 944.397 260.585 931.458 273.525Z" fill="#B2BAC5"/>
<path d="M1351.57 173.45V118.09H1299.65V173.45H1271.48V212.103H1299.65V327.737H1351.57V212.103H1384V173.45H1351.57Z" fill="#B2BAC5"/>
<path d="M1240.69 92.2125C1194.34 92.2125 1166.49 118.746 1166.49 167.718V173.287H1158.14H1135.21H1104.58V167.718C1104.91 150.848 1113.26 142.167 1126.04 142.167H1145.86V92.0487H1126.04C1079.69 92.0487 1051.84 118.582 1051.84 167.554V173.123H1023.02V211.941H1051.84V327.574H1104.58V211.941H1135.21H1158.14H1166.49V327.574H1219.23V211.941H1251.66V173.123H1219.23V167.554C1219.56 150.684 1227.91 142.004 1240.69 142.004H1257.07H1260.67V91.8849H1257.07H1240.69V92.2125Z" fill="#B2BAC5"/>
<defs>
<linearGradient id="paint0_linear_1_3" x1="-0.0735403" y1="209.647" x2="419.229" y2="209.647" gradientUnits="userSpaceOnUse">
<stop stop-color="#BEC4CD"/>
<stop offset="0.8997" stop-color="#B2BAC5"/>
</linearGradient>
</defs>
</svg>
